<svg width="20" height="20" viewBox="0 0 20 20" fill="none" xmlns="http://www.w3.org/2000/svg">
<path d="M11.0234 2.24001C10.7308 2.01242 10.3707 1.88885 10 1.88885C9.62938 1.88885 9.26928 2.01242 8.97671 2.24001L1.99005 7.67335C1.36338 8.16251 1.70838 9.16668 2.50255 9.16668H3.33338V15.8333C3.33338 16.2754 3.50897 16.6993 3.82153 17.0119C4.13409 17.3244 4.55802 17.5 5.00005 17.5H8.33338V12.5C8.33338 12.058 8.50897 11.6341 8.82153 11.3215C9.1341 11.0089 9.55802 10.8333 10 10.8333C10.4421 10.8333 10.866 11.0089 11.1786 11.3215C11.4911 11.6341 11.6667 12.058 11.6667 12.5V17.5H15C15.4421 17.5 15.866 17.3244 16.1786 17.0119C16.4911 16.6993 16.6667 16.2754 16.6667 15.8333V9.16668H17.4975C18.2909 9.16668 18.6375 8.16251 18.01 7.67418L11.0234 2.24001Z" fill="#868686"/>
</svg>
