<svg width="20" height="20" viewBox="0 0 20 20" fill="none" xmlns="http://www.w3.org/2000/svg">
<path d="M5 16.6667V18.3334ZM15 16.6667V18.3334ZM2.5 11.6667V6.66669C2.5 4.31002 2.5 3.13085 3.275 2.39919C4.05 1.66752 5.29833 1.66669 7.79417 1.66669H12.2058C14.7017 1.66669 15.9492 1.66669 16.725 2.39919C17.5 3.13085 17.5 4.31002 17.5 6.66669V11.6667C17.5 14.0234 17.5 15.2025 16.725 15.9342C15.95 16.6659 14.7017 16.6667 12.2058 16.6667H7.79417C5.29833 16.6667 4.05083 16.6667 3.275 15.9342C2.5 15.2025 2.5 14.0234 2.5 11.6667ZM10 16.6667V1.66669ZM2.5 11.6667H10ZM2.5 6.66669H10ZM12.5 9.58335V8.75002Z" fill="white"/>
<path d="M5 16.6667V18.3334M15 16.6667V18.3334M2.5 11.6667V6.66669M2.5 11.6667C2.5 14.0234 2.5 15.2025 3.275 15.9342C4.05083 16.6667 5.29833 16.6667 7.79417 16.6667H12.2058C14.7017 16.6667 15.95 16.6659 16.725 15.9342C17.5 15.2025 17.5 14.0234 17.5 11.6667V6.66669C17.5 4.31002 17.5 3.13085 16.725 2.39919C15.9492 1.66669 14.7017 1.66669 12.2058 1.66669H7.79417C5.29833 1.66669 4.05 1.66752 3.275 2.39919C2.5 3.13085 2.5 4.31002 2.5 6.66669M2.5 11.6667H10M2.5 6.66669H10M10 16.6667V1.66669M12.5 9.58335V8.75002" stroke="#868686" stroke-width="1.5" stroke-linecap="round" stroke-linejoin="round"/>
</svg>
